<svg width="39" height="39" viewBox="0 0 39 39" fill="none" xmlns="http://www.w3.org/2000/svg">
<rect x="20" y="1.70711" width="25.7538" height="25.7538" transform="rotate(45 20 1.70711)" stroke="white"/>
<path d="M19.6154 25.3563V27.25H16.9231C16.7115 27.25 16.5385 27.4187 16.5385 27.625C16.5385 27.8313 16.7115 28 16.9231 28H23.0769C23.2885 28 23.4615 27.8313 23.4615 27.625C23.4615 27.4187 23.2885 27.25 23.0769 27.25H20.3846V25.3563C22.9615 25.1688 25 23.05 25 20.5C25 20.2937 24.8269 20.125 24.6154 20.125C24.4038 20.125 24.2308 20.2937 24.2308 20.5C24.2308 22.7688 22.3269 24.625 20 24.625C17.6731 24.625 15.7692 22.7688 15.7692 20.5C15.7692 20.2937 15.5962 20.125 15.3846 20.125C15.1731 20.125 15 20.2937 15 20.5C15 23.0688 17.0385 25.1688 19.6154 25.3563ZM17.1154 15.8125V20.5C17.1154 22.0562 18.4038 23.3125 20 23.3125C21.5962 23.3125 22.8846 22.0562 22.8846 20.5V15.8125C22.8846 14.2562 21.5962 13 20 13C18.4038 13 17.1154 14.2562 17.1154 15.8125ZM17.8846 15.8125C17.8846 14.6688 18.8269 13.75 20 13.75C21.1731 13.75 22.1154 14.6688 22.1154 15.8125V20.5C22.1154 21.6438 21.1731 22.5625 20 22.5625C18.8269 22.5625 17.8846 21.6438 17.8846 20.5V15.8125Z" fill="white"/>
</svg>
